<mxfile host="app.diagrams.net" modified="2021-09-27T06:52:13.100Z" agent="5.0 (Windows NT 10.0; Win64; x64) AppleWebKit/537.36 (KHTML, like Gecko) Chrome/94.0.4606.61 Safari/537.36" etag="GSOVrXhBlXrkXAr6yxqh" version="15.3.1" type="github">
  <diagram id="cMm4M27kHHUs0Oj-cNqa" name="Page-1">
    <mxGraphModel dx="1295" dy="726" grid="1" gridSize="10" guides="1" tooltips="1" connect="1" arrows="1" fold="1" page="1" pageScale="1" pageWidth="827" pageHeight="1169" math="0" shadow="0">
      <root>
        <mxCell id="0" />
        <mxCell id="1" parent="0" />
        <mxCell id="NVyM13x4TOb-Q6vKccQO-3" style="edgeStyle=orthogonalEdgeStyle;rounded=0;orthogonalLoop=1;jettySize=auto;html=1;entryX=0;entryY=0.5;entryDx=0;entryDy=0;" edge="1" parent="1" source="NVyM13x4TOb-Q6vKccQO-1" target="NVyM13x4TOb-Q6vKccQO-2">
          <mxGeometry relative="1" as="geometry" />
        </mxCell>
        <mxCell id="NVyM13x4TOb-Q6vKccQO-1" value="prometheus" style="rounded=0;whiteSpace=wrap;html=1;fillColor=#f8cecc;strokeColor=#b85450;" vertex="1" parent="1">
          <mxGeometry x="50" y="230" width="120" height="60" as="geometry" />
        </mxCell>
        <mxCell id="NVyM13x4TOb-Q6vKccQO-8" style="edgeStyle=orthogonalEdgeStyle;rounded=0;orthogonalLoop=1;jettySize=auto;html=1;exitX=1;exitY=0.5;exitDx=0;exitDy=0;entryX=0;entryY=0.5;entryDx=0;entryDy=0;" edge="1" parent="1" source="NVyM13x4TOb-Q6vKccQO-2" target="NVyM13x4TOb-Q6vKccQO-7">
          <mxGeometry relative="1" as="geometry" />
        </mxCell>
        <mxCell id="NVyM13x4TOb-Q6vKccQO-2" value="alertmanager" style="rounded=0;whiteSpace=wrap;html=1;fillColor=#d5e8d4;strokeColor=#82b366;" vertex="1" parent="1">
          <mxGeometry x="260" y="230" width="120" height="60" as="geometry" />
        </mxCell>
        <mxCell id="NVyM13x4TOb-Q6vKccQO-4" value="push" style="text;html=1;strokeColor=none;fillColor=none;align=center;verticalAlign=middle;whiteSpace=wrap;rounded=0;" vertex="1" parent="1">
          <mxGeometry x="200" y="240" width="40" height="20" as="geometry" />
        </mxCell>
        <mxCell id="NVyM13x4TOb-Q6vKccQO-6" value="alerts" style="text;html=1;strokeColor=none;fillColor=none;align=center;verticalAlign=middle;whiteSpace=wrap;rounded=0;" vertex="1" parent="1">
          <mxGeometry x="200" y="270" width="40" height="20" as="geometry" />
        </mxCell>
        <mxCell id="NVyM13x4TOb-Q6vKccQO-11" style="edgeStyle=orthogonalEdgeStyle;rounded=0;orthogonalLoop=1;jettySize=auto;html=1;exitX=1;exitY=0.5;exitDx=0;exitDy=0;entryX=0;entryY=0.5;entryDx=0;entryDy=0;" edge="1" parent="1" source="NVyM13x4TOb-Q6vKccQO-7" target="NVyM13x4TOb-Q6vKccQO-10">
          <mxGeometry relative="1" as="geometry" />
        </mxCell>
        <mxCell id="NVyM13x4TOb-Q6vKccQO-7" value="容器云webhook" style="rounded=0;whiteSpace=wrap;html=1;fillColor=#e1d5e7;strokeColor=#9673a6;" vertex="1" parent="1">
          <mxGeometry x="470" y="230" width="120" height="60" as="geometry" />
        </mxCell>
        <mxCell id="NVyM13x4TOb-Q6vKccQO-9" value="webhook" style="text;html=1;strokeColor=none;fillColor=none;align=center;verticalAlign=middle;whiteSpace=wrap;rounded=0;" vertex="1" parent="1">
          <mxGeometry x="400" y="240" width="40" height="20" as="geometry" />
        </mxCell>
        <mxCell id="NVyM13x4TOb-Q6vKccQO-14" style="edgeStyle=orthogonalEdgeStyle;rounded=0;orthogonalLoop=1;jettySize=auto;html=1;exitX=1;exitY=0.5;exitDx=0;exitDy=0;entryX=0;entryY=0.5;entryDx=0;entryDy=0;" edge="1" parent="1" source="NVyM13x4TOb-Q6vKccQO-10" target="NVyM13x4TOb-Q6vKccQO-13">
          <mxGeometry relative="1" as="geometry" />
        </mxCell>
        <mxCell id="NVyM13x4TOb-Q6vKccQO-10" value="消息服务" style="rounded=0;whiteSpace=wrap;html=1;fillColor=#fff2cc;strokeColor=#d6b656;" vertex="1" parent="1">
          <mxGeometry x="690" y="230" width="120" height="60" as="geometry" />
        </mxCell>
        <mxCell id="NVyM13x4TOb-Q6vKccQO-12" value="message" style="text;html=1;strokeColor=none;fillColor=none;align=center;verticalAlign=middle;whiteSpace=wrap;rounded=0;" vertex="1" parent="1">
          <mxGeometry x="610" y="240" width="50" height="20" as="geometry" />
        </mxCell>
        <mxCell id="NVyM13x4TOb-Q6vKccQO-13" value="邮件/消息" style="rounded=0;whiteSpace=wrap;html=1;fillColor=#f8cecc;strokeColor=#b85450;" vertex="1" parent="1">
          <mxGeometry x="890" y="230" width="120" height="60" as="geometry" />
        </mxCell>
        <mxCell id="NVyM13x4TOb-Q6vKccQO-15" value="send" style="text;html=1;strokeColor=none;fillColor=none;align=center;verticalAlign=middle;whiteSpace=wrap;rounded=0;" vertex="1" parent="1">
          <mxGeometry x="827" y="240" width="40" height="20" as="geometry" />
        </mxCell>
      </root>
    </mxGraphModel>
  </diagram>
</mxfile>
